<?xml version="1.0" encoding="UTF-8"?>
<svg width="30px" height="18px" viewBox="0 0 30 18" version="1.1" xmlns="http://www.w3.org/2000/svg" xmlns:xlink="http://www.w3.org/1999/xlink">
    <!-- Generator: Sketch 53.2 (72643) - https://sketchapp.com -->
    <title>burg</title>
    <desc>Created with Sketch.</desc>
    <g id="Symbols" stroke="none" stroke-width="1" fill="none" fill-rule="evenodd">
        <g id="menu---mobil" transform="translate(-364.000000, -21.000000)" fill="#231F20">
            <g id="burg" transform="translate(364.000000, 21.000000)">
                <path d="M1,0 L29,0 C29.5522847,-1.01453063e-16 30,0.44771525 30,1 L30,1 C30,1.55228475 29.5522847,2 29,2 L1,2 C0.44771525,2 6.76353751e-17,1.55228475 0,1 L0,1 C-6.76353751e-17,0.44771525 0.44771525,1.01453063e-16 1,0 Z" id="Rectangle"></path>
                <path d="M3,8 L29,8 C29.5522847,8 30,8.44771525 30,9 L30,9 C30,9.55228475 29.5522847,10 29,10 L3,10 C2.44771525,10 2,9.55228475 2,9 L2,9 C2,8.44771525 2.44771525,8 3,8 Z" id="Rectangle"></path>
                <path d="M1,16 L29,16 C29.5522847,16 30,16.4477153 30,17 L30,17 C30,17.5522847 29.5522847,18 29,18 L1,18 C0.44771525,18 6.76353751e-17,17.5522847 0,17 L0,17 C-6.76353751e-17,16.4477153 0.44771525,16 1,16 Z" id="Rectangle"></path>
            </g>
        </g>
    </g>
</svg>