<?xml version="1.0" encoding="utf-8"?>
<!-- Generator: Adobe Illustrator 24.2.1, SVG Export Plug-In . SVG Version: 6.00 Build 0)  -->
<svg version="1.1" id="Layer_1" xmlns="http://www.w3.org/2000/svg" xmlns:xlink="http://www.w3.org/1999/xlink" x="0px" y="0px"
	 viewBox="0 0 142 34" style="enable-background:new 0 0 142 34;" xml:space="preserve">
<style type="text/css">
	.st0{fill:#FFCC00;}
</style>
<g>
	<g>
		<path class="st0" d="M27.89,1H2.2C1.35,1,0.66,1.69,0.66,2.54v7.77c0,0.85,0.69,1.54,1.54,1.54h0.34c3.29,0,6.47-1.11,9.11-3.07
			c1.06-0.79,2.23-1.35,3.33-1.35c0.02,0,0.05,0,0.07,0c0.02,0,0.05,0,0.07,0c1.1,0,2.26,0.56,3.33,1.35
			c2.64,1.96,5.82,3.07,9.11,3.07h0.34c0.85,0,1.54-0.69,1.54-1.54V2.54C29.43,1.69,28.74,1,27.89,1z"/>
		<path class="st0" d="M20.32,13.74c-0.73-1.56-3.55-4.5-5.28-4.42c-1.72-0.08-4.55,2.86-5.28,4.42c-0.58,1.25,0,17.82,0,17.82
			c0,0.79,0.64,1.43,1.43,1.43h3.83h0.04h3.83c0.79,0,1.43-0.64,1.43-1.43C20.32,31.56,20.91,14.99,20.32,13.74z"/>
	</g>
	<g>
		<path d="M42.06,11h-6.45V7.69h16.49V11h-6.45v17.02h-3.6V11z"/>
		<path d="M55.68,7.69h9.06c2.56,0,4.56,0.75,5.87,2.03c1.07,1.1,1.68,2.61,1.68,4.38v0.06c0,3.34-2,5.34-4.82,6.16l5.49,7.7h-4.24
			l-4.99-7.08h-4.47v7.08h-3.57V7.69z M64.48,17.77c2.55,0,4.18-1.34,4.18-3.4v-0.06c0-2.18-1.57-3.37-4.21-3.37h-5.2v6.82H64.48z"
			/>
		<path d="M76.67,7.69h3.57v20.33h-3.57V7.69z"/>
		<path d="M85.47,7.69h3.8l6.19,9.61l6.18-9.61h3.8v20.33h-3.57V13.44l-6.42,9.58h-0.12l-6.36-9.52v14.52h-3.51V7.69z"/>
		<path d="M110.68,7.69h3.57v20.33h-3.57V7.69z"/>
		<path d="M118.57,17.91v-0.06c0-5.72,4.41-10.51,10.66-10.51s10.6,4.73,10.6,10.45v0.06c0,5.72-4.41,10.51-10.66,10.51
			S118.57,23.63,118.57,17.91z M136.08,17.91v-0.06c0-3.95-2.88-7.23-6.91-7.23s-6.85,3.22-6.85,7.17v0.06c0,3.95,2.88,7.2,6.91,7.2
			S136.08,21.86,136.08,17.91z"/>
	</g>
</g>
</svg>
